# xmcd
#
# Track frame offsets:
#	150
#	20893
#	45672
#	67711
#	83616
#	106472
#	136715
#	172601
#
# Disc length: 2591 seconds
#
# Revision: 1
# Processed by: cddbd v1.5.1PL2 Copyright (c) Steve Scherf et al.
# Submitted via: EasyCDDAExtractor 8.1.0.1
#
DISCID=550a1d08
DTITLE=Various Artist - Seven turns
DYEAR=1900
DGENRE=Blues
TTITLE0=00. Title (2 - 00. Title (2)
TTITLE1=00. Title (3 - 00. Title (3)
TTITLE2=00. Title (4 - 00. Title (4)
TTITLE3=00. Title (5 - 00. Title (5)
TTITLE4=00. Title (6 - 00. Title (6)
TTITLE5=00. Title (7 - 00. Title (7)
TTITLE6=00. Title (8 - 00. Title (8)
TTITLE7=00. Title (9 - 00. Title (9)
EXTD=
EXTT0=
EXTT1=
EXTT2=
EXTT3=
EXTT4=
EXTT5=
EXTT6=
EXTT7=
PLAYORDER=
